<svg width="1652" height="993" xmlns="http://www.w3.org/2000/svg" xmlns:xlink="http://www.w3.org/1999/xlink" overflow="hidden"><defs><clipPath id="clip0"><rect x="1897" y="817" width="1652" height="993"/></clipPath><clipPath id="clip1"><rect x="1897" y="818" width="1650" height="990"/></clipPath><clipPath id="clip2"><rect x="2017" y="988" width="1483" height="717"/></clipPath><clipPath id="clip3"><rect x="1897" y="818" width="1650" height="990"/></clipPath><clipPath id="clip4"><rect x="1897" y="818" width="1650" height="990"/></clipPath><clipPath id="clip5"><rect x="1897" y="818" width="1650" height="990"/></clipPath><clipPath id="clip6"><rect x="1897" y="818" width="1650" height="990"/></clipPath><clipPath id="clip7"><rect x="1897" y="818" width="1650" height="990"/></clipPath><clipPath id="clip8"><rect x="1897" y="818" width="1650" height="990"/></clipPath><clipPath id="clip9"><rect x="1897" y="818" width="1650" height="990"/></clipPath><clipPath id="clip10"><rect x="1897" y="818" width="1650" height="990"/></clipPath><clipPath id="clip11"><rect x="1897" y="818" width="1650" height="990"/></clipPath><clipPath id="clip12"><rect x="1897" y="818" width="1650" height="990"/></clipPath><clipPath id="clip13"><rect x="1897" y="818" width="1650" height="990"/></clipPath><clipPath id="clip14"><rect x="1897" y="818" width="1650" height="990"/></clipPath></defs><g clip-path="url(#clip0)" transform="translate(-1897 -817)"><rect x="1898" y="818" width="1649" height="990" fill="#FFFFFF"/><g clip-path="url(#clip1)"><path d="M2017.5 1582.55 3497.5 1582.55M2017.5 1463.55 3497.5 1463.55M2017.5 1344.54 3497.5 1344.54M2017.5 1225.54 3497.5 1225.54M2017.5 1107.54 3497.5 1107.54M2017.5 988.5 3497.5 988.5" stroke="#D9D9D9" stroke-width="3.4375" stroke-linejoin="round" stroke-miterlimit="10" fill="none"/></g><g clip-path="url(#clip2)"><path d="M2187.07 1362.04 2342.08 1362.04 2342.08 1702 2187.07 1702ZM2680.09 1022.03 2835.09 1022.03 2835.09 1702 2680.09 1702ZM3173.1 1532.05 3328.11 1532.05 3328.11 1702 3173.1 1702Z" fill="#4472C4"/></g><g clip-path="url(#clip3)"><path d="M2017.5 1701.5 3497.5 1701.5" stroke="#D9D9D9" stroke-width="3.4375" stroke-linejoin="round" stroke-miterlimit="10" fill="none" fill-rule="evenodd"/></g><g clip-path="url(#clip4)"><text fill="#595959" font-family="Calibri,Calibri_MSFontService,sans-serif" font-weight="400" font-size="41" transform="matrix(1 0 0 1 1958.6 1713)">0</text></g><g clip-path="url(#clip5)"><text fill="#595959" font-family="Calibri,Calibri_MSFontService,sans-serif" font-weight="400" font-size="41" transform="matrix(1 0 0 1 1927.29 1594)">0.1</text></g><g clip-path="url(#clip6)"><text fill="#595959" font-family="Calibri,Calibri_MSFontService,sans-serif" font-weight="400" font-size="41" transform="matrix(1 0 0 1 1927.29 1475)">0.2</text></g><g clip-path="url(#clip7)"><text fill="#595959" font-family="Calibri,Calibri_MSFontService,sans-serif" font-weight="400" font-size="41" transform="matrix(1 0 0 1 1927.29 1357)">0.3</text></g><g clip-path="url(#clip8)"><text fill="#595959" font-family="Calibri,Calibri_MSFontService,sans-serif" font-weight="400" font-size="41" transform="matrix(1 0 0 1 1927.29 1238)">0.4</text></g><g clip-path="url(#clip9)"><text fill="#595959" font-family="Calibri,Calibri_MSFontService,sans-serif" font-weight="400" font-size="41" transform="matrix(1 0 0 1 1927.29 1119)">0.5</text></g><g clip-path="url(#clip10)"><text fill="#595959" font-family="Calibri,Calibri_MSFontService,sans-serif" font-weight="400" font-size="41" transform="matrix(1 0 0 1 1927.29 1000)">0.6</text></g><g clip-path="url(#clip11)"><text fill="#595959" font-family="Calibri,Calibri_MSFontService,sans-serif" font-weight="400" font-size="41" transform="matrix(1 0 0 1 2253.87 1767)">0</text></g><g clip-path="url(#clip12)"><text fill="#595959" font-family="Calibri,Calibri_MSFontService,sans-serif" font-weight="400" font-size="41" transform="matrix(1 0 0 1 2746.97 1767)">1</text></g><g clip-path="url(#clip13)"><text fill="#595959" font-family="Calibri,Calibri_MSFontService,sans-serif" font-weight="400" font-size="41" transform="matrix(1 0 0 1 3240.08 1767)">2</text></g><g clip-path="url(#clip14)"><text fill="#595959" font-family="Calibri,Calibri_MSFontService,sans-serif" font-weight="400" font-size="64" transform="matrix(1 0 0 1 2441.09 914)">Probability Histogram</text></g><rect x="1898.5" y="818.5" width="1649" height="990" stroke="#D9D9D9" stroke-width="3.4375" stroke-linejoin="round" stroke-miterlimit="10" fill="none"/></g></svg>